<?xml version="1.0" encoding="utf-8"?>
<!-- Generator: Adobe Illustrator 28.0.0, SVG Export Plug-In . SVG Version: 6.00 Build 0)  -->
<svg version="1.1" id="Capa_1" xmlns="http://www.w3.org/2000/svg" xmlns:xlink="http://www.w3.org/1999/xlink" x="0px" y="0px"
	 viewBox="0 0 837.45 520.85" style="enable-background:new 0 0 837.45 520.85;" xml:space="preserve">
<style type="text/css">
	.st0{fill:#428ECD;}
	.st1{fill:#3D8CCB;}
	.st2{fill:none;stroke:#3D8CCB;stroke-width:14.8497;stroke-linecap:round;stroke-linejoin:round;stroke-miterlimit:10;}
	.st3{fill:#333333;}
	.st4{fill:none;stroke:#333333;stroke-width:14.8497;stroke-linecap:round;stroke-linejoin:round;stroke-miterlimit:10;}
</style>
<g>
	<g>
		<path class="st0" d="M211.86,327.05c-0.06,1.41-0.44,2.57-1.14,3.47c-0.7,0.91-1.73,1.33-3.08,1.28c-1.06,0-2.35-0.38-3.87-1.14
			c-3.28-1.41-6.57-2.11-9.85-2.11c-4.87,0-9.15,2.1-12.84,6.29c-3.69,4.19-5.57,9.51-5.63,15.96c-0.06,5.8,1.76,10.7,5.45,14.69
			c3.69,3.99,8.15,5.98,13.37,5.98c3.75,0.06,7.33-0.91,10.73-2.9c0.23-0.12,0.54-0.29,0.92-0.53c0.38-0.24,0.67-0.4,0.88-0.48
			s0.5-0.18,0.88-0.26c0.38-0.09,0.78-0.13,1.19-0.13c1.17,0,2.11,0.53,2.81,1.58c0.7,1.06,1.05,2.23,1.05,3.52
			c-0.06,2.11-2.14,4.06-6.24,5.85c-4.1,1.79-8.5,2.65-13.19,2.59c-7.5-0.12-14-2.86-19.48-8.22c-5.48-5.37-8.19-12.47-8.14-21.33
			c0.06-4.75,0.92-9.15,2.59-13.19c1.67-4.05,3.88-7.37,6.64-9.98s5.83-4.65,9.24-6.11s6.89-2.2,10.47-2.2
			c4.93,0.12,9.21,0.94,12.84,2.46C210.39,323.41,211.86,325.05,211.86,327.05z"/>
		<path class="st0" d="M294.09,328.01c5.69,5.63,8.53,12.75,8.53,21.37c0,8.8-2.77,16.23-8.31,22.3s-12.5,9.1-20.89,9.1
			c-7.62,0-14.32-2.71-20.1-8.14c-5.78-5.42-8.66-12.47-8.66-21.15c0-9.44,2.95-17.15,8.84-23.13c5.89-5.98,12.62-8.91,20.18-8.79
			C281.61,319.57,288.41,322.38,294.09,328.01z M286.88,334.43c-3.93-3.93-8.59-5.89-13.98-5.89c-5.04,0-9.38,2.1-13.02,6.29
			c-3.64,4.19-5.45,9.46-5.45,15.79c0,6.22,1.88,11.26,5.63,15.13c3.75,3.87,8.38,5.8,13.9,5.8c5.28,0,9.76-2.2,13.46-6.6
			c3.69-4.4,5.51-9.53,5.45-15.39C292.8,343.4,290.81,338.36,286.88,334.43z"/>
		<path class="st0" d="M347.13,320.01h10.38c8.74,0.29,16.01,2.87,21.81,7.74c5.8,4.87,8.71,11.64,8.71,20.32
			c0,21.05-11.14,31.66-33.42,31.84c-5.86,0-9.76-0.09-11.7-0.26c-1.35-0.12-2.46-0.69-3.34-1.71c-0.88-1.03-1.32-2.3-1.32-3.83
			l0.18-21.2l-0.26-26.83C338.16,322.03,341.15,320.01,347.13,320.01z M348.1,328.98V369c0,1,0.35,1.58,1.05,1.76
			c0.7,0.18,2.32,0.26,4.84,0.26c16.24,0,24.36-7.33,24.36-21.99c0-6.68-2.14-11.73-6.42-15.13c-4.28-3.4-9.62-5.1-16.01-5.1
			C352.06,328.81,349.45,328.86,348.1,328.98z"/>
		<path class="st0" d="M430.69,320.19c1.7,0,2.99,0.03,3.87,0.09c4.22,0,8.68-0.03,13.37-0.09s7.48-0.09,8.36-0.09
			c3.17,0,4.75,1.32,4.75,3.96c0.12,2.46-0.79,3.93-2.73,4.4c-1.29,0.06-8.06,0.09-20.32,0.09h-3.87v8.44l-0.09,8.27v1.14h3.52
			c2.81,0,7.56-0.09,14.25-0.26c1.88,0,3.25,0.28,4.13,0.84c0.88,0.56,1.29,1.69,1.23,3.39c0,2.76-1.53,4.13-4.57,4.13
			c-1.35,0-4.53,0.01-9.54,0.04c-5.01,0.03-8.08,0.04-9.19,0.04c-0.06,1.17-0.09,3.05-0.09,5.63c0,1.17-0.01,3.02-0.04,5.54
			s-0.04,4.4-0.04,5.63c2.35,0.06,9.03,0.03,20.05-0.09c2.35-0.12,3.78-0.18,4.31-0.18c2.58,0,3.87,1.44,3.87,4.31
			c0,3.05-1.64,4.6-4.93,4.66h-23.66c-3.69,0-6.14-0.34-7.34-1.01c-1.2-0.67-1.86-2.18-1.98-4.53v-3.25c0-0.06,0.01-0.53,0.04-1.41
			c0.03-0.88,0.06-2.11,0.09-3.69s0.06-3.36,0.09-5.32c0.03-1.96,0.06-4.28,0.09-6.95c0.03-2.67,0.04-5.29,0.04-7.87
			c0-2.35,0.01-5.89,0.04-10.64c0.03-4.75,0.04-8.33,0.04-10.73C424.62,321.68,426.7,320.19,430.69,320.19z"/>
		<path class="st0" d="M544.01,339.01c0.03-6.98,0.04-11.58,0.04-13.81c0-3.22,1.55-4.84,4.66-4.84c1.88,0,3.2,0.4,3.96,1.19
			c0.76,0.79,1.14,2.07,1.14,3.83c-0.06,3.58-0.09,13.54-0.09,29.9c0,5.39,1.23,9.42,3.69,12.09c2.46,2.67,5.95,4,10.47,4
			c4.1,0,7.4-1.52,9.89-4.57s3.77-6.92,3.83-11.61c0.12-0.7,0.13-5.72,0.04-15.04c-0.09-9.32-0.13-14.42-0.13-15.3
			c0-3.11,1.67-4.66,5.01-4.66c1.7,0,2.93,0.44,3.69,1.32c0.76,0.88,1.14,2.32,1.14,4.31l0.18,27.35c0,8.44-2.14,15.1-6.42,19.96
			c-4.28,4.87-10.23,7.3-17.85,7.3c-7.15,0-12.83-2.2-17.02-6.6s-6.29-10.55-6.29-18.47C543.97,351.44,543.98,345.98,544.01,339.01z
			"/>
		<path class="st0" d="M630.07,332.23c0-4.75,0.06-7.45,0.18-8.09c0.64-2.4,2.35-3.69,5.1-3.87c0.88-0.06,5.39-0.18,13.54-0.35
			c6.1,0,11.14,1.32,15.13,3.96c5.22,3.46,7.8,8.74,7.74,15.83c-0.12,4.28-1.5,8.22-4.13,11.83c-2.64,3.61-6.07,5.91-10.29,6.9
			c-1.99,0.53-6.86,0.79-14.6,0.79h-2.81c0,1.7,0.03,4.38,0.09,8.05s0.09,6.58,0.09,8.75c0,2.93-1.7,4.4-5.1,4.4
			c-1.58,0-2.8-0.37-3.65-1.1c-0.85-0.73-1.28-1.72-1.28-2.95c0.06-3.75,0.1-9.31,0.13-16.67c0.03-7.36,0.04-13,0.04-16.93
			C630.25,339.27,630.19,335.75,630.07,332.23z M640.05,346.7c0.03,1.61,0.04,2.86,0.04,3.74h4.22c4.93,0.12,8.36-0.09,10.29-0.62
			c2.29-0.53,4.1-1.82,5.45-3.87c1.35-2.05,2.05-4.31,2.11-6.77c0.06-4.16-1.58-7.12-4.93-8.88c-2.17-1.11-5.13-1.67-8.88-1.67
			c-4.4,0-7.21,0.03-8.44,0.09c0,0.94,0.01,3.06,0.04,6.38c0.03,3.31,0.04,6,0.04,8.05C640.01,343.9,640.02,345.09,640.05,346.7z"/>
	</g>
	<g>
		<path class="st1" d="M505.68,275.85c-12.18,0-22.77-9.03-24.41-21.44c-1.78-13.5,7.72-25.88,21.22-27.66l119.2-15.7v-5.01
			l-107.92-15.28l-85.82,78.61c-10.04,9.2-25.63,8.51-34.83-1.53c-9.2-10.04-8.51-25.63,1.53-34.83l94.4-86.48
			c5.43-4.98,12.81-7.26,20.11-6.23l140.64,19.92c12.16,1.72,21.19,12.13,21.19,24.41v48.04c0,12.37-9.17,22.83-21.43,24.44
			l-140.64,18.52C507.84,275.78,506.75,275.85,505.68,275.85z"/>
		<path class="st2" d="M337.51,275.85c-1.07,0-2.16-0.07-3.25-0.21l-140.64-18.52c-12.26-1.62-21.43-12.07-21.43-24.44v-48.04
			c0-12.28,9.04-22.69,21.19-24.41l140.64-19.92c13.49-1.9,25.96,7.47,27.86,20.95c1.91,13.48-7.47,25.96-20.95,27.86l-119.44,16.92
			v5.01l119.2,15.7c13.5,1.78,23,14.16,21.22,27.66C360.28,266.82,349.69,275.85,337.51,275.85z"/>
	</g>
</g>
</svg>
