<?xml version="1.0" encoding="utf-8"?>
<!-- Generator: Adobe Illustrator 28.0.0, SVG Export Plug-In . SVG Version: 6.00 Build 0)  -->
<svg version="1.1" id="Capa_1" xmlns="http://www.w3.org/2000/svg" xmlns:xlink="http://www.w3.org/1999/xlink" x="0px" y="0px"
	 viewBox="0 0 837.45 520.85" style="enable-background:new 0 0 837.45 520.85;" xml:space="preserve">
<style type="text/css">
	.st0{fill:#428ECD;}
	.st1{fill:#3D8CCB;}
	.st2{fill:none;stroke:#3D8CCB;stroke-width:14.8497;stroke-linecap:round;stroke-linejoin:round;stroke-miterlimit:10;}
	.st3{fill:#333333;}
	.st4{fill:none;stroke:#333333;stroke-width:14.8497;stroke-linecap:round;stroke-linejoin:round;stroke-miterlimit:10;}
</style>
<g>
	<path class="st3" d="M502.81,328.32c-12.18,0-22.77-9.03-24.41-21.44c-1.78-13.5,7.72-25.88,21.22-27.66l119.2-15.7v-5.01
		l-107.92-15.28l-85.82,78.61c-10.04,9.2-25.63,8.51-34.83-1.53c-9.2-10.04-8.51-25.63,1.53-34.83l94.4-86.48
		c5.43-4.98,12.81-7.26,20.11-6.23l140.64,19.92c12.16,1.72,21.19,12.13,21.19,24.41v48.04c0,12.37-9.17,22.83-21.43,24.44
		L506.06,328.1C504.97,328.25,503.88,328.32,502.81,328.32z"/>
	<path class="st4" d="M334.64,328.32c-1.07,0-2.16-0.07-3.25-0.21l-140.64-18.52c-12.26-1.62-21.43-12.07-21.43-24.44v-48.04
		c0-12.28,9.04-22.69,21.19-24.41l140.64-19.92c13.49-1.9,25.96,7.47,27.86,20.95c1.91,13.48-7.47,25.96-20.95,27.86l-119.44,16.92
		v5.01l119.2,15.7c13.5,1.78,23,14.16,21.22,27.66C357.41,319.29,346.82,328.32,334.64,328.32z"/>
</g>
</svg>
